<?xml version="1.0" encoding="UTF-8" standalone="no"?>
<!DOCTYPE svg PUBLIC "-//W3C//DTD SVG 1.1//EN"
 "http://www.w3.org/Graphics/SVG/1.1/DTD/svg11.dtd">
<!-- Generated by graphviz version 7.1.0 (20230121.1956)
 -->
<!-- Title: dependencies Pages: 1 -->
<svg width="469pt" height="260pt"
 viewBox="0.00 0.00 469.29 260.00" xmlns="http://www.w3.org/2000/svg" xmlns:xlink="http://www.w3.org/1999/xlink">
<g id="graph0" class="graph" transform="scale(1 1) rotate(0) translate(4 256)">
<title>dependencies</title>
<polygon fill="white" stroke="none" points="-4,4 -4,-256 465.29,-256 465.29,4 -4,4"/>
<!-- 1 -->
<g id="node1" class="node">
<title>1</title>
<ellipse fill="none" stroke="black" cx="233.44" cy="-234" rx="34.39" ry="18"/>
<text text-anchor="middle" x="233.44" y="-230.3" font-family="Times,serif" font-size="14.00">django</text>
</g>
<!-- 2 -->
<g id="node2" class="node">
<title>2</title>
<ellipse fill="none" stroke="black" cx="73.44" cy="-162" rx="34.39" ry="18"/>
<text text-anchor="middle" x="73.44" y="-158.3" font-family="Times,serif" font-size="14.00">asgiref</text>
</g>
<!-- 1&#45;&gt;2 -->
<g id="edge1" class="edge">
<title>1&#45;&gt;2</title>
<path fill="none" stroke="black" d="M207.74,-221.75C181.22,-210.15 139.65,-191.96 109.78,-178.9"/>
<polygon fill="black" stroke="black" points="111.3,-175.74 100.74,-174.94 108.5,-182.16 111.3,-175.74"/>
</g>
<!-- 3 -->
<g id="node3" class="node">
<title>3</title>
<ellipse fill="none" stroke="black" cx="165.44" cy="-162" rx="39.79" ry="18"/>
<text text-anchor="middle" x="165.44" y="-158.3" font-family="Times,serif" font-size="14.00">sqlparse</text>
</g>
<!-- 1&#45;&gt;3 -->
<g id="edge2" class="edge">
<title>1&#45;&gt;3</title>
<path fill="none" stroke="black" d="M218.35,-217.46C209.67,-208.53 198.58,-197.11 188.79,-187.04"/>
<polygon fill="black" stroke="black" points="191.5,-184.8 182.02,-180.06 186.48,-189.67 191.5,-184.8"/>
</g>
<!-- 4 -->
<g id="node4" class="node">
<title>4</title>
<ellipse fill="none" stroke="black" cx="301.44" cy="-162" rx="77.99" ry="18"/>
<text text-anchor="middle" x="301.44" y="-158.3" font-family="Times,serif" font-size="14.00">backports.zoneinfo</text>
</g>
<!-- 1&#45;&gt;4 -->
<g id="edge3" class="edge">
<title>1&#45;&gt;4</title>
<path fill="none" stroke="black" d="M248.53,-217.46C256.89,-208.87 267.47,-197.97 276.98,-188.19"/>
<polygon fill="black" stroke="black" points="279.45,-190.66 283.91,-181.05 274.43,-185.78 279.45,-190.66"/>
</g>
<!-- 5 -->
<g id="node5" class="node">
<title>5</title>
<ellipse fill="none" stroke="black" cx="429.44" cy="-162" rx="31.7" ry="18"/>
<text text-anchor="middle" x="429.44" y="-158.3" font-family="Times,serif" font-size="14.00">tzdata</text>
</g>
<!-- 1&#45;&gt;5 -->
<g id="edge4" class="edge">
<title>1&#45;&gt;5</title>
<path fill="none" stroke="black" d="M262.21,-223.77C293.47,-213.6 344.81,-196.49 388.44,-180 390.36,-179.28 392.32,-178.52 394.3,-177.74"/>
<polygon fill="black" stroke="black" points="395.45,-181.05 403.42,-174.07 392.84,-174.56 395.45,-181.05"/>
</g>
<!-- 7 -->
<g id="node7" class="node">
<title>7</title>
<ellipse fill="none" stroke="black" cx="73.44" cy="-90" rx="73.39" ry="18"/>
<text text-anchor="middle" x="73.44" y="-86.3" font-family="Times,serif" font-size="14.00">typing&#45;extensions</text>
</g>
<!-- 2&#45;&gt;7 -->
<g id="edge6" class="edge">
<title>2&#45;&gt;7</title>
<path fill="none" stroke="black" d="M73.44,-143.7C73.44,-136.41 73.44,-127.73 73.44,-119.54"/>
<polygon fill="black" stroke="black" points="76.94,-119.62 73.44,-109.62 69.94,-119.62 76.94,-119.62"/>
</g>
<!-- 6 -->
<g id="node6" class="node">
<title>6</title>
<ellipse fill="none" stroke="black" cx="301.44" cy="-90" rx="79.89" ry="18"/>
<text text-anchor="middle" x="301.44" y="-86.3" font-family="Times,serif" font-size="14.00">importlib&#45;resources</text>
</g>
<!-- 4&#45;&gt;6 -->
<g id="edge5" class="edge">
<title>4&#45;&gt;6</title>
<path fill="none" stroke="black" d="M301.44,-143.7C301.44,-136.41 301.44,-127.73 301.44,-119.54"/>
<polygon fill="black" stroke="black" points="304.94,-119.62 301.44,-109.62 297.94,-119.62 304.94,-119.62"/>
</g>
<!-- 8 -->
<g id="node8" class="node">
<title>8</title>
<ellipse fill="none" stroke="black" cx="301.44" cy="-18" rx="27" ry="18"/>
<text text-anchor="middle" x="301.44" y="-14.3" font-family="Times,serif" font-size="14.00">zipp</text>
</g>
<!-- 6&#45;&gt;8 -->
<g id="edge7" class="edge">
<title>6&#45;&gt;8</title>
<path fill="none" stroke="black" d="M301.44,-71.7C301.44,-64.41 301.44,-55.73 301.44,-47.54"/>
<polygon fill="black" stroke="black" points="304.94,-47.62 301.44,-37.62 297.94,-47.62 304.94,-47.62"/>
</g>
</g>
</svg>
