<?xml version="1.0" encoding="UTF-8" standalone="no"?>
<!DOCTYPE svg PUBLIC "-//W3C//DTD SVG 1.1//EN"
 "http://www.w3.org/Graphics/SVG/1.1/DTD/svg11.dtd">
<!-- Generated by graphviz version 7.1.0 (20230121.1956)
 -->
<!-- Title: dependencies Pages: 1 -->
<svg width="1598pt" height="404pt"
 viewBox="0.00 0.00 1598.34 404.00" xmlns="http://www.w3.org/2000/svg" xmlns:xlink="http://www.w3.org/1999/xlink">
<g id="graph0" class="graph" transform="scale(1 1) rotate(0) translate(4 400)">
<title>dependencies</title>
<polygon fill="white" stroke="none" points="-4,4 -4,-400 1594.34,-400 1594.34,4 -4,4"/>
<!-- 18 -->
<g id="node1" class="node">
<title>18</title>
<ellipse fill="none" stroke="black" cx="1393.94" cy="-90" rx="67.69" ry="18"/>
<text text-anchor="middle" x="1393.94" y="-86.3" font-family="Times,serif" font-size="14.00">@vue/reactivity</text>
</g>
<!-- 2 -->
<g id="node15" class="node">
<title>2</title>
<ellipse fill="none" stroke="black" cx="1202.94" cy="-18" rx="57.39" ry="18"/>
<text text-anchor="middle" x="1202.94" y="-14.3" font-family="Times,serif" font-size="14.00">@vue/shared</text>
</g>
<!-- 18&#45;&gt;2 -->
<g id="edge40" class="edge">
<title>18&#45;&gt;2</title>
<path fill="none" stroke="black" d="M1355.29,-74.83C1324.83,-63.67 1282.24,-48.06 1249.84,-36.19"/>
<polygon fill="black" stroke="black" points="1251.28,-32.99 1240.69,-32.84 1248.87,-39.56 1251.28,-32.99"/>
</g>
<!-- 3 -->
<g id="node2" class="node">
<title>3</title>
<ellipse fill="none" stroke="black" cx="1070.94" cy="-162" rx="85.29" ry="18"/>
<text text-anchor="middle" x="1070.94" y="-158.3" font-family="Times,serif" font-size="14.00">@vue/compiler&#45;dom</text>
</g>
<!-- 7 -->
<g id="node9" class="node">
<title>7</title>
<ellipse fill="none" stroke="black" cx="463.94" cy="-90" rx="83.69" ry="18"/>
<text text-anchor="middle" x="463.94" y="-86.3" font-family="Times,serif" font-size="14.00">@vue/compiler&#45;core</text>
</g>
<!-- 3&#45;&gt;7 -->
<g id="edge7" class="edge">
<title>3&#45;&gt;7</title>
<path fill="none" stroke="black" d="M1000.06,-151.65C980.29,-149.1 958.78,-146.38 938.94,-144 802.58,-127.61 643.97,-110.26 548.9,-100.04"/>
<polygon fill="black" stroke="black" points="549.45,-96.58 539.13,-98.99 548.7,-103.54 549.45,-96.58"/>
</g>
<!-- 3&#45;&gt;2 -->
<g id="edge6" class="edge">
<title>3&#45;&gt;2</title>
<path fill="none" stroke="black" d="M1086.86,-143.87C1109.98,-119 1152.98,-72.75 1179.66,-44.05"/>
<polygon fill="black" stroke="black" points="1182.1,-46.56 1186.34,-36.86 1176.97,-41.8 1182.1,-46.56"/>
</g>
<!-- 14 -->
<g id="node3" class="node">
<title>14</title>
<ellipse fill="none" stroke="black" cx="1114.94" cy="-234" rx="78.79" ry="18"/>
<text text-anchor="middle" x="1114.94" y="-230.3" font-family="Times,serif" font-size="14.00">@vue/compiler&#45;ssr</text>
</g>
<!-- 14&#45;&gt;3 -->
<g id="edge34" class="edge">
<title>14&#45;&gt;3</title>
<path fill="none" stroke="black" d="M1104.06,-215.7C1099.16,-207.9 1093.26,-198.51 1087.8,-189.83"/>
<polygon fill="black" stroke="black" points="1090.78,-187.99 1082.5,-181.39 1084.85,-191.71 1090.78,-187.99"/>
</g>
<!-- 14&#45;&gt;2 -->
<g id="edge33" class="edge">
<title>14&#45;&gt;2</title>
<path fill="none" stroke="black" d="M1135.18,-216.27C1145.54,-206.68 1157.5,-193.81 1164.94,-180 1187.86,-137.44 1197.07,-81.24 1200.69,-47.74"/>
<polygon fill="black" stroke="black" points="1204.15,-48.29 1201.64,-38 1197.18,-47.61 1204.15,-48.29"/>
</g>
<!-- 11 -->
<g id="node4" class="node">
<title>11</title>
<ellipse fill="none" stroke="black" cx="153.94" cy="-90" rx="55.79" ry="18"/>
<text text-anchor="middle" x="153.94" y="-86.3" font-family="Times,serif" font-size="14.00">magic&#45;string</text>
</g>
<!-- 17 -->
<g id="node13" class="node">
<title>17</title>
<ellipse fill="none" stroke="black" cx="118.94" cy="-18" rx="118.88" ry="18"/>
<text text-anchor="middle" x="118.94" y="-14.3" font-family="Times,serif" font-size="14.00">@jridgewell/sourcemap&#45;codec</text>
</g>
<!-- 11&#45;&gt;17 -->
<g id="edge32" class="edge">
<title>11&#45;&gt;17</title>
<path fill="none" stroke="black" d="M145.47,-72.05C141.61,-64.35 136.95,-55.03 132.62,-46.36"/>
<polygon fill="black" stroke="black" points="135.86,-45.01 128.25,-37.63 129.6,-48.14 135.86,-45.01"/>
</g>
<!-- 15 -->
<g id="node5" class="node">
<title>15</title>
<ellipse fill="none" stroke="black" cx="1381.94" cy="-162" rx="79.89" ry="18"/>
<text text-anchor="middle" x="1381.94" y="-158.3" font-family="Times,serif" font-size="14.00">@vue/runtime&#45;core</text>
</g>
<!-- 15&#45;&gt;18 -->
<g id="edge36" class="edge">
<title>15&#45;&gt;18</title>
<path fill="none" stroke="black" d="M1384.91,-143.7C1386.17,-136.32 1387.68,-127.52 1389.1,-119.25"/>
<polygon fill="black" stroke="black" points="1392.51,-120.04 1390.75,-109.6 1385.61,-118.86 1392.51,-120.04"/>
</g>
<!-- 15&#45;&gt;2 -->
<g id="edge35" class="edge">
<title>15&#45;&gt;2</title>
<path fill="none" stroke="black" d="M1361.39,-144.36C1348.57,-133.95 1331.76,-120.24 1316.94,-108 1297.72,-92.12 1293.49,-87.46 1273.94,-72 1261.06,-61.81 1246.57,-50.9 1234.05,-41.64"/>
<polygon fill="black" stroke="black" points="1236.28,-38.93 1226.15,-35.82 1232.13,-44.57 1236.28,-38.93"/>
</g>
<!-- 19 -->
<g id="node6" class="node">
<title>19</title>
<ellipse fill="none" stroke="black" cx="782.94" cy="-162" rx="34.39" ry="18"/>
<text text-anchor="middle" x="782.94" y="-158.3" font-family="Times,serif" font-size="14.00">nanoid</text>
</g>
<!-- 5 -->
<g id="node7" class="node">
<title>5</title>
<ellipse fill="none" stroke="black" cx="579.94" cy="-306" rx="79.09" ry="18"/>
<text text-anchor="middle" x="579.94" y="-302.3" font-family="Times,serif" font-size="14.00">@vue/compiler&#45;sfc</text>
</g>
<!-- 5&#45;&gt;3 -->
<g id="edge12" class="edge">
<title>5&#45;&gt;3</title>
<path fill="none" stroke="black" d="M659.32,-304.73C735.54,-301.91 852.55,-290.79 945.94,-252 970.57,-241.77 972.29,-231.56 993.94,-216 1007.83,-206.02 1023.34,-195.27 1036.78,-186.08"/>
<polygon fill="black" stroke="black" points="1038.6,-189.07 1044.89,-180.55 1034.66,-183.29 1038.6,-189.07"/>
</g>
<!-- 5&#45;&gt;14 -->
<g id="edge17" class="edge">
<title>5&#45;&gt;14</title>
<path fill="none" stroke="black" d="M647.16,-296.21C746.4,-283.22 931.69,-258.98 1036.83,-245.22"/>
<polygon fill="black" stroke="black" points="1037.04,-248.72 1046.5,-243.96 1036.13,-241.78 1037.04,-248.72"/>
</g>
<!-- 5&#45;&gt;11 -->
<g id="edge14" class="edge">
<title>5&#45;&gt;11</title>
<path fill="none" stroke="black" d="M502.28,-302.1C410.93,-297.24 266.33,-284.51 223.94,-252 181.6,-219.53 164.43,-156.18 157.81,-119.37"/>
<polygon fill="black" stroke="black" points="161.33,-119.22 156.26,-109.92 154.42,-120.35 161.33,-119.22"/>
</g>
<!-- 10 -->
<g id="node8" class="node">
<title>10</title>
<ellipse fill="none" stroke="black" cx="408.94" cy="-162" rx="104.78" ry="18"/>
<text text-anchor="middle" x="408.94" y="-158.3" font-family="Times,serif" font-size="14.00">@vue/reactivity&#45;transform</text>
</g>
<!-- 5&#45;&gt;10 -->
<g id="edge13" class="edge">
<title>5&#45;&gt;10</title>
<path fill="none" stroke="black" d="M559.65,-288.15C529.52,-263.13 472.79,-216.02 438.18,-187.28"/>
<polygon fill="black" stroke="black" points="440.56,-184.71 430.63,-181.01 436.09,-190.09 440.56,-184.71"/>
</g>
<!-- 5&#45;&gt;7 -->
<g id="edge11" class="edge">
<title>5&#45;&gt;7</title>
<path fill="none" stroke="black" d="M575,-287.71C564.43,-251.37 539.26,-168.4 522.94,-144 515.73,-133.22 505.84,-123.2 496.22,-114.84"/>
<polygon fill="black" stroke="black" points="498.64,-112.3 488.71,-108.62 494.18,-117.69 498.64,-112.3"/>
</g>
<!-- 8 -->
<g id="node10" class="node">
<title>8</title>
<ellipse fill="none" stroke="black" cx="313.94" cy="-18" rx="57.69" ry="18"/>
<text text-anchor="middle" x="313.94" y="-14.3" font-family="Times,serif" font-size="14.00">estree&#45;walker</text>
</g>
<!-- 5&#45;&gt;8 -->
<g id="edge9" class="edge">
<title>5&#45;&gt;8</title>
<path fill="none" stroke="black" d="M510.77,-296.96C445.79,-288.29 354.27,-272.88 324.94,-252 294.58,-230.38 291.85,-215.93 281.94,-180 269.19,-133.8 287,-78.82 300.72,-46.53"/>
<polygon fill="black" stroke="black" points="303.88,-48.06 304.74,-37.5 297.48,-45.22 303.88,-48.06"/>
</g>
<!-- 12 -->
<g id="node11" class="node">
<title>12</title>
<ellipse fill="none" stroke="black" cx="598.94" cy="-18" rx="51.99" ry="18"/>
<text text-anchor="middle" x="598.94" y="-14.3" font-family="Times,serif" font-size="14.00">source&#45;map</text>
</g>
<!-- 5&#45;&gt;12 -->
<g id="edge15" class="edge">
<title>5&#45;&gt;12</title>
<path fill="none" stroke="black" d="M581.1,-287.54C584.27,-239.76 593.13,-106.51 597.04,-47.61"/>
<polygon fill="black" stroke="black" points="600.52,-47.95 597.69,-37.74 593.54,-47.49 600.52,-47.95"/>
</g>
<!-- 5&#45;&gt;2 -->
<g id="edge8" class="edge">
<title>5&#45;&gt;2</title>
<path fill="none" stroke="black" d="M632.82,-292.36C671.49,-282.63 725,-268.14 770.94,-252 847.58,-225.08 871.06,-224.63 938.94,-180 958.38,-167.22 958.17,-157.74 976.94,-144 1036.86,-100.15 1113.83,-60.72 1160.71,-38.35"/>
<polygon fill="black" stroke="black" points="1162.19,-41.52 1169.73,-34.08 1159.2,-35.19 1162.19,-41.52"/>
</g>
<!-- 9 -->
<g id="node16" class="node">
<title>9</title>
<ellipse fill="none" stroke="black" cx="725.94" cy="-234" rx="36.29" ry="18"/>
<text text-anchor="middle" x="725.94" y="-230.3" font-family="Times,serif" font-size="14.00">postcss</text>
</g>
<!-- 5&#45;&gt;9 -->
<g id="edge10" class="edge">
<title>5&#45;&gt;9</title>
<path fill="none" stroke="black" d="M612.7,-289.29C635.74,-278.24 666.56,-263.47 690.22,-252.12"/>
<polygon fill="black" stroke="black" points="691.67,-255.31 699.18,-247.83 688.65,-249 691.67,-255.31"/>
</g>
<!-- 13 -->
<g id="node17" class="node">
<title>13</title>
<ellipse fill="none" stroke="black" cx="451.94" cy="-18" rx="61.99" ry="18"/>
<text text-anchor="middle" x="451.94" y="-14.3" font-family="Times,serif" font-size="14.00">@babel/parser</text>
</g>
<!-- 5&#45;&gt;13 -->
<g id="edge16" class="edge">
<title>5&#45;&gt;13</title>
<path fill="none" stroke="black" d="M511.93,-296.4C443.91,-283.77 342.74,-253.16 294.94,-180 256.77,-121.57 348.46,-66.24 407.27,-38.17"/>
<polygon fill="black" stroke="black" points="408.51,-41.45 416.1,-34.05 405.56,-35.1 408.51,-41.45"/>
</g>
<!-- 10&#45;&gt;11 -->
<g id="edge31" class="edge">
<title>10&#45;&gt;11</title>
<path fill="none" stroke="black" d="M354.86,-146.15C311.02,-134.12 249.6,-117.26 206.24,-105.36"/>
<polygon fill="black" stroke="black" points="207.38,-102.04 196.81,-102.77 205.53,-108.79 207.38,-102.04"/>
</g>
<!-- 10&#45;&gt;7 -->
<g id="edge28" class="edge">
<title>10&#45;&gt;7</title>
<path fill="none" stroke="black" d="M422.53,-143.7C428.86,-135.64 436.52,-125.89 443.52,-116.98"/>
<polygon fill="black" stroke="black" points="446.14,-119.32 449.57,-109.29 440.63,-115 446.14,-119.32"/>
</g>
<!-- 10&#45;&gt;8 -->
<g id="edge30" class="edge">
<title>10&#45;&gt;8</title>
<path fill="none" stroke="black" d="M392.63,-144.09C383.36,-134.04 371.86,-120.79 362.94,-108 349.17,-88.26 336.16,-64.28 327.01,-46.18"/>
<polygon fill="black" stroke="black" points="330.22,-44.78 322.64,-37.38 323.95,-47.9 330.22,-44.78"/>
</g>
<!-- 10&#45;&gt;2 -->
<g id="edge29" class="edge">
<title>10&#45;&gt;2</title>
<path fill="none" stroke="black" d="M479.75,-148.34C634.07,-120.74 998.4,-55.58 1142.63,-29.79"/>
<polygon fill="black" stroke="black" points="1143.14,-33.25 1152.37,-28.04 1141.91,-26.36 1143.14,-33.25"/>
</g>
<!-- 10&#45;&gt;13 -->
<g id="edge27" class="edge">
<title>10&#45;&gt;13</title>
<path fill="none" stroke="black" d="M392.38,-143.83C376.88,-125.58 357.91,-96.09 370.94,-72 378.66,-57.73 392.08,-46.68 405.8,-38.46"/>
<polygon fill="black" stroke="black" points="407.38,-41.58 414.44,-33.69 404,-35.45 407.38,-41.58"/>
</g>
<!-- 7&#45;&gt;8 -->
<g id="edge23" class="edge">
<title>7&#45;&gt;8</title>
<path fill="none" stroke="black" d="M429.9,-73.12C407.79,-62.8 378.82,-49.28 355.37,-38.34"/>
<polygon fill="black" stroke="black" points="356.95,-35.21 346.4,-34.15 353.99,-41.55 356.95,-35.21"/>
</g>
<!-- 7&#45;&gt;12 -->
<g id="edge24" class="edge">
<title>7&#45;&gt;12</title>
<path fill="none" stroke="black" d="M494.91,-72.94C514.49,-62.79 539.94,-49.59 560.76,-38.8"/>
<polygon fill="black" stroke="black" points="562.26,-41.96 569.53,-34.25 559.04,-35.75 562.26,-41.96"/>
</g>
<!-- 7&#45;&gt;2 -->
<g id="edge25" class="edge">
<title>7&#45;&gt;2</title>
<path fill="none" stroke="black" d="M525.5,-77.46C537.55,-75.44 550.12,-73.51 561.94,-72 770.16,-45.39 1018.23,-29.28 1135.34,-22.6"/>
<polygon fill="black" stroke="black" points="1135.3,-26.11 1145.09,-22.05 1134.91,-19.12 1135.3,-26.11"/>
</g>
<!-- 7&#45;&gt;13 -->
<g id="edge26" class="edge">
<title>7&#45;&gt;13</title>
<path fill="none" stroke="black" d="M460.97,-71.7C459.71,-64.32 458.2,-55.52 456.78,-47.25"/>
<polygon fill="black" stroke="black" points="460.27,-46.86 455.13,-37.6 453.37,-48.04 460.27,-46.86"/>
</g>
<!-- 16 -->
<g id="node12" class="node">
<title>16</title>
<ellipse fill="none" stroke="black" cx="1553.94" cy="-162" rx="36.29" ry="18"/>
<text text-anchor="middle" x="1553.94" y="-158.3" font-family="Times,serif" font-size="14.00">csstype</text>
</g>
<!-- 1 -->
<g id="node14" class="node">
<title>1</title>
<ellipse fill="none" stroke="black" cx="1133.94" cy="-378" rx="27" ry="18"/>
<text text-anchor="middle" x="1133.94" y="-374.3" font-family="Times,serif" font-size="14.00">vue</text>
</g>
<!-- 1&#45;&gt;3 -->
<g id="edge2" class="edge">
<title>1&#45;&gt;3</title>
<path fill="none" stroke="black" d="M1109.32,-370.47C1086.66,-363.11 1054.06,-348.79 1036.94,-324 1009.55,-284.33 1010.57,-261.34 1026.94,-216 1030.64,-205.76 1037.27,-196.09 1044.29,-187.9"/>
<polygon fill="black" stroke="black" points="1046.69,-190.45 1050.9,-180.73 1041.54,-185.71 1046.69,-190.45"/>
</g>
<!-- 1&#45;&gt;5 -->
<g id="edge4" class="edge">
<title>1&#45;&gt;5</title>
<path fill="none" stroke="black" d="M1107.59,-373.67C1027.65,-363.57 785.59,-332.98 659,-316.99"/>
<polygon fill="black" stroke="black" points="659.72,-313.55 649.36,-315.77 658.85,-320.5 659.72,-313.55"/>
</g>
<!-- 1&#45;&gt;2 -->
<g id="edge1" class="edge">
<title>1&#45;&gt;2</title>
<path fill="none" stroke="black" d="M1158.03,-369.6C1179.98,-361.68 1211.82,-347.03 1230.94,-324 1257.51,-291.99 1259.94,-276.6 1259.94,-235 1259.94,-235 1259.94,-235 1259.94,-161 1259.94,-118.36 1237.54,-73.38 1220.82,-45.74"/>
<polygon fill="black" stroke="black" points="1223.82,-43.95 1215.55,-37.32 1217.89,-47.66 1223.82,-43.95"/>
</g>
<!-- 4 -->
<g id="node20" class="node">
<title>4</title>
<ellipse fill="none" stroke="black" cx="1435.94" cy="-234" rx="81.49" ry="18"/>
<text text-anchor="middle" x="1435.94" y="-230.3" font-family="Times,serif" font-size="14.00">@vue/runtime&#45;dom</text>
</g>
<!-- 1&#45;&gt;4 -->
<g id="edge3" class="edge">
<title>1&#45;&gt;4</title>
<path fill="none" stroke="black" d="M1157.64,-369.17C1185.82,-359.6 1234.06,-342.39 1273.94,-324 1318.11,-303.63 1366.78,-276.17 1399.12,-257.17"/>
<polygon fill="black" stroke="black" points="1400.9,-260.19 1407.72,-252.09 1397.33,-254.16 1400.9,-260.19"/>
</g>
<!-- 6 -->
<g id="node21" class="node">
<title>6</title>
<ellipse fill="none" stroke="black" cx="1133.94" cy="-306" rx="87.99" ry="18"/>
<text text-anchor="middle" x="1133.94" y="-302.3" font-family="Times,serif" font-size="14.00">@vue/server&#45;renderer</text>
</g>
<!-- 1&#45;&gt;6 -->
<g id="edge5" class="edge">
<title>1&#45;&gt;6</title>
<path fill="none" stroke="black" d="M1133.94,-359.7C1133.94,-352.41 1133.94,-343.73 1133.94,-335.54"/>
<polygon fill="black" stroke="black" points="1137.44,-335.62 1133.94,-325.62 1130.44,-335.62 1137.44,-335.62"/>
</g>
<!-- 9&#45;&gt;19 -->
<g id="edge37" class="edge">
<title>9&#45;&gt;19</title>
<path fill="none" stroke="black" d="M739.16,-216.76C746.24,-208.07 755.1,-197.19 763,-187.49"/>
<polygon fill="black" stroke="black" points="765.63,-189.8 769.23,-179.84 760.2,-185.38 765.63,-189.8"/>
</g>
<!-- 20 -->
<g id="node18" class="node">
<title>20</title>
<ellipse fill="none" stroke="black" cx="882.94" cy="-162" rx="47.39" ry="18"/>
<text text-anchor="middle" x="882.94" y="-158.3" font-family="Times,serif" font-size="14.00">picocolors</text>
</g>
<!-- 9&#45;&gt;20 -->
<g id="edge38" class="edge">
<title>9&#45;&gt;20</title>
<path fill="none" stroke="black" d="M752.22,-221.28C776.91,-210.27 814.22,-193.64 842.67,-180.96"/>
<polygon fill="black" stroke="black" points="844,-184.19 851.71,-176.93 841.15,-177.8 844,-184.19"/>
</g>
<!-- 21 -->
<g id="node19" class="node">
<title>21</title>
<ellipse fill="none" stroke="black" cx="668.94" cy="-162" rx="61.19" ry="18"/>
<text text-anchor="middle" x="668.94" y="-158.3" font-family="Times,serif" font-size="14.00">source&#45;map&#45;js</text>
</g>
<!-- 9&#45;&gt;21 -->
<g id="edge39" class="edge">
<title>9&#45;&gt;21</title>
<path fill="none" stroke="black" d="M712.72,-216.76C705.84,-208.32 697.28,-197.8 689.55,-188.31"/>
<polygon fill="black" stroke="black" points="692.47,-186.35 683.44,-180.81 687.04,-190.77 692.47,-186.35"/>
</g>
<!-- 4&#45;&gt;15 -->
<g id="edge19" class="edge">
<title>4&#45;&gt;15</title>
<path fill="none" stroke="black" d="M1422.87,-216.05C1416.57,-207.89 1408.87,-197.91 1401.86,-188.82"/>
<polygon fill="black" stroke="black" points="1404.69,-186.77 1395.82,-180.99 1399.15,-191.04 1404.69,-186.77"/>
</g>
<!-- 4&#45;&gt;16 -->
<g id="edge20" class="edge">
<title>4&#45;&gt;16</title>
<path fill="none" stroke="black" d="M1463.61,-216.59C1480.88,-206.34 1503.21,-193.09 1521.34,-182.34"/>
<polygon fill="black" stroke="black" points="1523.08,-185.38 1529.9,-177.26 1519.51,-179.35 1523.08,-185.38"/>
</g>
<!-- 4&#45;&gt;2 -->
<g id="edge18" class="edge">
<title>4&#45;&gt;2</title>
<path fill="none" stroke="black" d="M1450.76,-216.17C1458.4,-206.35 1466.94,-193.31 1470.94,-180 1484.75,-134.03 1501.41,-109.09 1470.94,-72 1446.04,-41.69 1341.44,-28.42 1270.52,-22.83"/>
<polygon fill="black" stroke="black" points="1271.19,-19.37 1260.96,-22.11 1270.67,-26.35 1271.19,-19.37"/>
</g>
<!-- 6&#45;&gt;14 -->
<g id="edge22" class="edge">
<title>6&#45;&gt;14</title>
<path fill="none" stroke="black" d="M1129.24,-287.7C1127.22,-280.24 1124.8,-271.32 1122.53,-262.97"/>
<polygon fill="black" stroke="black" points="1125.98,-262.3 1119.98,-253.57 1119.22,-264.13 1125.98,-262.3"/>
</g>
<!-- 6&#45;&gt;2 -->
<g id="edge21" class="edge">
<title>6&#45;&gt;2</title>
<path fill="none" stroke="black" d="M1165.72,-288.99C1179.75,-280.14 1194.85,-267.71 1202.94,-252 1237.25,-185.33 1221.87,-93.05 1210.78,-47.2"/>
<polygon fill="black" stroke="black" points="1214.24,-46.62 1208.38,-37.8 1207.46,-48.35 1214.24,-46.62"/>
</g>
</g>
</svg>
